# xmcd
#
# Track frame offsets:
#	150
#	19457
#	42740
#	59987
#	78377
#	98947
#	120780
#	137937
#	155857
#	174022
#	192567
#	219845
#	240727
#	266295
#	285805
#
# Disc length: 4179 seconds
#
# Revision: 1
# Processed by: cddbd v1.5PL3 Copyright (c) Steve Scherf et al.
# Submitted via: CDex 1.50Beta5
#
DISCID=d610510f
DTITLE=山口百恵 - 百恵復活 Disc 2
DYEAR=1992
DGENRE=Pop
TTITLE0=いい日旅立ち
TTITLE1=曼珠沙華
TTITLE2=美・サイレント
TTITLE3=愛の嵐
TTITLE4=CRY FOR ME
TTITLE5=しなやかに歌って
TTITLE6=愛染橋
TTITLE7=謝肉祭
TTITLE8=ロックンロール・ウィドウ
TTITLE9=E=MC2
TTITLE10=さよならの向う側
TTITLE11=不死鳥伝説
TTITLE12=This is my trial
TTITLE13=あなたへの子守唄
TTITLE14=一恵
EXTD=
EXTT0=
EXTT1=
EXTT2=
EXTT3=
EXTT4=
EXTT5=
EXTT6=
EXTT7=
EXTT8=
EXTT9=
EXTT10=
EXTT11=
EXTT12=
EXTT13=
EXTT14=
PLAYORDER=
